<svg id="icons" enable-background="new 0 0 64 64" height="512" viewBox="0 0 64 64" width="512" xmlns="http://www.w3.org/2000/svg"><g><g><path d="m61 20.996c1.1 0 2 .89 2 2 0 1.1-.9 2-2 2h-17v-4z" fill="#ed5565"/></g><g><path d="m44 20.996v4c0 3.31-2.68 6-6 6h-26c-3.31 0-6-2.68-6-6v-5h38z" fill="#656d78"/></g><g><path d="m44 40.996h-10v-4c1.66 0 3-1.35 3-3 3.87 0 7 3.13 7 7z" fill="#ffce54"/></g><g><path d="m31 40.996h-10v-4c1.66 0 3-1.35 3-3 3.87 0 7 3.13 7 7z" fill="#ffce54"/></g><g><path d="m18.01 40.996h-10v-4c1.66 0 3-1.35 3-3 3.87 0 7 3.13 7 7z" fill="#ffce54"/></g><g><path d="m21 40.996h10 3 10 2.98v-.01c2.22 0 4.01 1.79 4.01 4v6.01c0 2.21-1.79 4-4.01 4h-41.97c2.21-.01 4-1.79 4-4v-6.01c0-2.141-1.689-3.88-3.8-3.99h2.8 10z" fill="#965353"/></g><g><path d="m5.21 40.996c2.11.11 3.8 1.85 3.8 3.99v6.01c0 2.21-1.79 3.99-4 4h-.01c-2.21 0-4-1.79-4-4v-6.01c0-2.21 1.79-4 4-4 .07 0 .14 0 .21.01z" fill="#ffd2a6"/></g></g><g><g><g><path d="m18.009 41.996c-.553 0-1-.447-1-1 0-3.309-2.691-6-6-6-.553 0-1-.447-1-1s.447-1 1-1c4.411 0 8 3.589 8 8 0 .553-.447 1-1 1z"/></g><g><path d="m8.009 37.996c-.553 0-1-.447-1-1s.447-1 1-1c1.103 0 2-.897 2-2 0-.553.447-1 1-1s1 .447 1 1c0 2.206-1.794 4-4 4z"/></g><g><path d="m8.009 41.996c-.553 0-1-.447-1-1v-4c0-.553.447-1 1-1s1 .447 1 1v4c0 .553-.447 1-1 1z"/></g><g><path d="m31.005 41.996c-.553 0-1-.447-1-1 0-3.309-2.691-6-6-6-.553 0-1-.447-1-1s.447-1 1-1c4.411 0 8 3.589 8 8 0 .553-.447 1-1 1z"/></g><g><path d="m21.005 37.996c-.553 0-1-.447-1-1s.447-1 1-1c1.103 0 2-.897 2-2 0-.553.447-1 1-1s1 .447 1 1c0 2.206-1.794 4-4 4z"/></g><g><path d="m21.005 41.996c-.553 0-1-.447-1-1v-4c0-.553.447-1 1-1s1 .447 1 1v4c0 .553-.447 1-1 1z"/></g><g><path d="m43.997 41.996c-.553 0-1-.447-1-1 0-3.309-2.691-6-6-6-.553 0-1-.447-1-1s.447-1 1-1c4.411 0 8 3.589 8 8 0 .553-.447 1-1 1z"/></g><g><path d="m33.997 37.996c-.553 0-1-.447-1-1s.447-1 1-1c1.103 0 2-.897 2-2 0-.553.447-1 1-1s1 .447 1 1c0 2.206-1.794 4-4 4z"/></g><g><path d="m33.997 41.996c-.553 0-1-.447-1-1v-4c0-.553.447-1 1-1s1 .447 1 1v4c0 .553-.447 1-1 1z"/></g></g><g><path d="m12.003 32c-3.859 0-7-3.141-7-7 0-.553.447-1 1-1s1 .447 1 1c0 2.757 2.243 5 5 5 .553 0 1 .447 1 1s-.447 1-1 1z"/></g><g><path d="m38.003 31.998c-.553 0-1-.447-1-1s.447-1 1-1c2.757 0 5-2.243 5-5 0-.553.447-1 1-1s1 .447 1 1c0 3.859-3.141 7-7 7z"/></g><g><path d="m38.003 32h-26c-.553 0-1-.447-1-1s.447-1 1-1h26c.553 0 1 .447 1 1s-.447 1-1 1z"/></g><g><path d="m44.003 25.998c-.553 0-1-.447-1-1v-5.002c0-.553.447-1 1-1s1 .447 1 1v5.002c0 .553-.447 1-1 1z"/></g><g><path d="m6.003 26c-.553 0-1-.447-1-1v-5.004c0-.553.447-1 1-1s1 .447 1 1v5.004c0 .553-.447 1-1 1z"/></g><g><path d="m44.003 20.996h-38c-.553 0-1-.447-1-1s.447-1 1-1h38c.553 0 1 .447 1 1s-.447 1-1 1z"/></g><g><path d="m60.999 25.998c-.553 0-1-.447-1-1s.447-1 1-1c.552 0 1-.448 1-1 0-.553-.448-1.002-1-1.002-.553 0-1-.447-1-1s.447-1 1-1c1.654 0 3 1.347 3 3.002 0 1.654-1.346 3-3 3z"/></g><g><path d="m60.999 25.998h-16.996c-.553 0-1-.447-1-1s.447-1 1-1h16.996c.553 0 1 .447 1 1s-.447 1-1 1z"/></g><g><path d="m60.999 21.996h-16.996c-.553 0-1-.447-1-1s.447-1 1-1h16.996c.553 0 1 .447 1 1s-.447 1-1 1z"/></g><g><g><path d="m46.984 55.998h-41.977c-.553 0-1-.447-1-1s.447-1 1-1h41.978c.553 0 1 .447 1 1s-.448 1-1.001 1z"/></g><g><path d="m46.984 41.996h-41.977c-.553 0-1-.447-1-1s.447-1 1-1h41.978c.553 0 1 .447 1 1s-.448 1-1.001 1z"/></g><g><path d="m9.007 45.994c-.553 0-1-.447-1-1 0-1.656-1.347-3.004-3.003-3.004s-3.003 1.348-3.003 3.004c0 .553-.447 1-1 1s-1-.447-1-1c0-2.759 2.244-5.004 5.003-5.004s5.003 2.245 5.003 5.004c0 .553-.447 1-1 1z"/></g><g><path d="m5.004 56.002c-2.759 0-5.003-2.245-5.003-5.004 0-.553.447-1 1-1s1 .447 1 1c0 1.656 1.347 3.004 3.003 3.004s3.003-1.348 3.003-3.004c0-.553.447-1 1-1s1 .447 1 1c0 2.759-2.244 5.004-5.003 5.004z"/></g><g><path d="m1.001 51.998c-.553 0-1-.447-1-1v-6.004c0-.553.447-1 1-1s1 .447 1 1v6.004c0 .553-.447 1-1 1z"/></g><g><path d="m9.007 51.998c-.553 0-1-.447-1-1v-6.004c0-.553.447-1 1-1s1 .447 1 1v6.004c0 .553-.447 1-1 1z"/></g><g><path d="m50.987 45.994c-.553 0-1-.447-1-1 0-1.656-1.347-3.004-3.003-3.004-.553 0-1-.447-1-1s.447-1 1-1c2.759 0 5.003 2.245 5.003 5.004 0 .553-.447 1-1 1z"/></g><g><path d="m46.984 56.002c-.553 0-1-.447-1-1s.447-1 1-1c1.656 0 3.003-1.348 3.003-3.004 0-.553.447-1 1-1s1 .447 1 1c0 2.759-2.244 5.004-5.003 5.004z"/></g><g><path d="m50.987 51.998c-.553 0-1-.447-1-1v-6.004c0-.553.447-1 1-1s1 .447 1 1v6.004c0 .553-.447 1-1 1z"/></g></g><g><path d="m10.002 17.998c-.553 0-1-.447-1-1v-8c0-.553.447-1 1-1s1 .447 1 1v8c0 .553-.447 1-1 1z"/></g><g><path d="m15.002 17.998c-.553 0-1-.447-1-1v-4.996c0-.553.447-1 1-1s1 .447 1 1v4.996c0 .553-.447 1-1 1z"/></g><g><path d="m20.002 17.998c-.553 0-1-.447-1-1v-8c0-.553.447-1 1-1s1 .447 1 1v8c0 .553-.447 1-1 1z"/></g><g><path d="m25.002 17.998c-.553 0-1-.447-1-1v-4.996c0-.553.447-1 1-1s1 .447 1 1v4.996c0 .553-.447 1-1 1z"/></g><g><path d="m30.002 17.998c-.553 0-1-.447-1-1v-8c0-.553.447-1 1-1s1 .447 1 1v8c0 .553-.447 1-1 1z"/></g><g><path d="m35.002 17.998c-.553 0-1-.447-1-1v-4.996c0-.553.447-1 1-1s1 .447 1 1v4.996c0 .553-.447 1-1 1z"/></g><g><path d="m40.002 17.998c-.553 0-1-.447-1-1v-8c0-.553.447-1 1-1s1 .447 1 1v8c0 .553-.447 1-1 1z"/></g></g></svg>